{"scene":0,"scenes":[{"nodes":[0]}],"asset":{"version":"2.0","generator":"https://github.com/mikedh/trimesh"},"accessors":[{"componentType":5125,"type":"SCALAR","bufferView":0,"count":96,"max":[17],"min":[0]},{"componentType":5126,"type":"VEC3","byteOffset":0,"bufferView":1,"count":18,"max":[0.6000000238418579,0.6000000238418579,0.6000000238418579],"min":[-0.6000000238418579,-0.6000000238418579,-0.6000000238418579]}],"meshes":[{"name":"g0","extras":{"shape":"cylinder","height":1.2,"radius":0.6,"processed":true},"primitives":[{"attributes":{"POSITION":1},"indices":0,"mode":4}]}],"nodes":[{"name":"world","children":[1]},{"name":"n0","mesh":0}],"buffers":[{"uri":"data:application/octet-stream;base64,","byteLength":384},{"uri":"data:application/octet-stream;base64,","byteLength":216}],"bufferViews":[{"buffer":0,"byteOffset":0,"byteLength":384},{"buffer":1,"byteOffset":0,"byteLength":216}]}