{"scene":0,"scenes":[{"nodes":[0]}],"asset":{"version":"2.0","generator":"https://github.com/mikedh/trimesh"},"accessors":[{"componentType":5125,"type":"SCALAR","bufferView":0,"count":30,"max":[5],"min":[0]},{"componentType":5126,"type":"VEC3","byteOffset":0,"bufferView":1,"count":6,"max":[1.0,0.5,0.75],"min":[-1.0,-0.5,-0.75]}],"meshes":[{"name":"g0","extras":{"processed":true},"primitives":[{"attributes":{"POSITION":1},"indices":0,"mode":4}]}],"nodes":[{"name":"world","children":[1]},{"name":"n0","mesh":0}],"buffers":[{"uri":"data:application/octet-stream;base64,","byteLength":120},{"uri":"data:application/octet-stream;base64,","byteLength":72}],"bufferViews":[{"buffer":0,"byteOffset":0,"byteLength":120},{"buffer":1,"byteOffset":0,"byteLength":72}]}