{"scene":0,"scenes":[{"nodes":[0]}],"asset":{"version":"2.0","generator":"https://github.com/mikedh/trimesh"},"accessors":[{"componentType":5125,"type":"SCALAR","bufferView":0,"count":36,"max":[7],"min":[0]},{"componentType":5126,"type":"VEC3","byteOffset":0,"bufferView":1,"count":8,"max":[0.375,-0.75,0.375],"min":[-0.375,-1.25,-0.375]},{"componentType":5126,"type":"VEC3","byteOffset":0,"bufferView":2,"count":8,"max":[0.375,-0.25,0.375],"min":[-0.375,-0.75,-0.375]},{"componentType":5126,"type":"VEC3","byteOffset":0,"bufferView":3,"count":8,"max":[0.375,0.25,0.375],"min":[-0.375,-0.25,-0.375]},{"componentType":5126,"type":"VEC3","byteOffset":0,"bufferView":4,"count":8,"max":[0.375,0.75,0.375],"min":[-0.375,0.25,-0.375]},{"componentType":5126,"type":"VEC3","byteOffset":0,"bufferView":5,"count":8,"max":[0.375,1.25,0.375],"min":[-0.375,0.75,-0.375]}],"meshes":[{"name":"g0","extras":{"shape":"box","extents":[0.75,0.5,0.75]},"primitives":[{"attributes":{"POSITION":1},"indices":0,"mode":4}]},{"name":"g1","extras":{"shape":"box","extents":[0.75,0.5,0.75]},"primitives":[{"attributes":{"POSITION":2},"indices":0,"mode":4}]},{"name":"g2","extras":{"shape":"box","extents":[0.75,0.5,0.75]},"primitives":[{"attributes":{"POSITION":3},"indices":0,"mode":4}]},{"name":"g3","extras":{"shape":"box","extents":[0.75,0.5,0.75]},"primitives":[{"attributes":{"POSITION":4},"indices":0,"mode":4}]},{"name":"g4","extras":{"shape":"box","extents":[0.75,0.5,0.75]},"primitives":[{"attributes":{"POSITION":5},"indices":0,"mode":4}]}],"nodes":[{"name":"world","children":[1,2,3,4,5]},{"name":"n0","mesh":0},{"name":"n1","mesh":1},{"name":"n2","mesh":2},{"name":"n3","mesh":3},{"name":"n4","mesh":4}],"buffers":[{"uri":"data:application/octet-stream;base64,","byteLength":144},{"uri":"data:application/octet-stream;base64,","byteLength":96},{"uri":"data:application/octet-stream;base64,","byteLength":96},{"uri":"data:application/octet-stream;base64,","byteLength":96},{"uri":"data:application/octet-stream;base64,","byteLength":96},{"uri":"data:application/octet-stream;base64,","byteLength":96}],"bufferViews":[{"buffer":0,"byteOffset":0,"byteLength":144},{"buffer":1,"byteOffset":0,"byteLength":96},{"buffer":2,"byteOffset":0,"byteLength":96},{"buffer":3,"byteOffset":0,"byteLength":96},{"buffer":4,"byteOffset":0,"byteLength":96},{"buffer":5,"byteOffset":0,"byteLength":96}]}