{"scene":0,"scenes":[{"nodes":[0]}],"asset":{"version":"2.0","generator":"https://github.com/mikedh/trimesh"},"accessors":[{"componentType":5125,"type":"SCALAR","bufferView":0,"count":144,"max":[25],"min":[0]},{"componentType":5126,"type":"VEC3","byteOffset":0,"bufferView":1,"count":26,"max":[0.8999999761581421,0.15000000596046448,0.8999999761581421],"min":[-0.8999999761581421,-0.15000000596046448,-0.8999999761581421]},{"componentType":5126,"type":"VEC3","byteOffset":0,"bufferView":2,"count":26,"max":[0.5799999833106995,0.20999999344348907,0.5799999833106995],"min":[-0.5799999833106995,-0.20999999344348907,-0.5799999833106995]}],"meshes":[{"name":"g0","extras":{"shape":"cylinder","height":0.3,"radius":0.9,"processed":true},"primitives":[{"attributes":{"POSITION":1},"indices":0,"mode":4}]},{"name":"g1","extras":{"shape":"cylinder","height":0.42,"radius":0.58,"processed":true},"primitives":[{"attributes":{"POSITION":2},"indices":0,"mode":4}]}],"nodes":[{"name":"world","children":[1,2]},{"name":"n0","mesh":0},{"name":"n1","mesh":1}],"buffers":[{"uri":"data:application/octet-stream;base64,","byteLength":576},{"uri":"data:application/octet-stream;base64,","byteLength":312},{"uri":"data:application/octet-stream;base64,","byteLength":312}],"bufferViews":[{"buffer":0,"byteOffset":0,"byteLength":576},{"buffer":1,"byteOffset":0,"byteLength":312},{"buffer":2,"byteOffset":0,"byteLength":312}]}