{"scene":0,"scenes":[{"nodes":[0]}],"asset":{"version":"2.0","generator":"https://github.com/mikedh/trimesh"},"accessors":[{"componentType":5125,"type":"SCALAR","bufferView":0,"count":60,"max":[11],"min":[0]},{"componentType":5126,"type":"VEC3","byteOffset":0,"bufferView":1,"count":12,"max":[0.39129936695098877,0.39129936695098877,0.39129936695098877],"min":[-0.39129936695098877,-0.39129936695098877,-0.39129936695098877]},{"componentType":5125,"type":"SCALAR","bufferView":2,"count":144,"max":[25],"min":[0]},{"componentType":5126,"type":"VEC3","byteOffset":0,"bufferView":3,"count":26,"max":[0.5799999833106995,-0.5,0.5799999833106995],"min":[-0.5799999833106995,-0.6200000047683716,-0.5799999833106995]},{"componentType":5126,"type":"VEC3","byteOffset":0,"bufferView":4,"count":26,"max":[0.5799999833106995,0.6200000047683716,0.5799999833106995],"min":[-0.5799999833106995,0.5,-0.5799999833106995]}],"meshes":[{"name":"g0","extras":{"shape":"sphere","radius":0.46},"primitives":[{"attributes":{"POSITION":1},"indices":0,"mode":4}]},{"name":"g1","extras":{"shape":"cylinder","height":0.12,"radius":0.58,"processed":true},"primitives":[{"attributes":{"POSITION":3},"indices":2,"mode":4}]},{"name":"g2","extras":{"shape":"cylinder","height":0.12,"radius":0.58,"processed":true},"primitives":[{"attributes":{"POSITION":4},"indices":2,"mode":4}]}],"nodes":[{"name":"world","children":[1,2,3]},{"name":"n0","mesh":0},{"name":"n1","mesh":1},{"name":"n2","mesh":2}],"buffers":[{"uri":"data:application/octet-stream;base64,","byteLength":240},{"uri":"data:application/octet-stream;base64,","byteLength":144},{"uri":"data:application/octet-stream;base64,","byteLength":576},{"uri":"data:application/octet-stream;base64,","byteLength":312},{"uri":"data:application/octet-stream;base64,","byteLength":312}],"bufferViews":[{"buffer":0,"byteOffset":0,"byteLength":240},{"buffer":1,"byteOffset":0,"byteLength":144},{"buffer":2,"byteOffset":0,"byteLength":576},{"buffer":3,"byteOffset":0,"byteLength":312},{"buffer":4,"byteOffset":0,"byteLength":312}]}