{"scene":0,"scenes":[{"nodes":[0]}],"asset":{"version":"2.0","generator":"https://github.com/mikedh/trimesh"},"accessors":[{"componentType":5125,"type":"SCALAR","bufferView":0,"count":192,"max":[33],"min":[0]},{"componentType":5126,"type":"VEC3","byteOffset":0,"bufferView":1,"count":34,"max":[4.0,0.25,4.0],"min":[-4.0,-0.25,-4.0]}],"meshes":[{"name":"g0","extras":{"shape":"cylinder","height":0.5,"radius":4,"processed":true},"primitives":[{"attributes":{"POSITION":1},"indices":0,"mode":4}]}],"nodes":[{"name":"world","children":[1]},{"name":"n0","mesh":0}],"buffers":[{"uri":"data:application/octet-stream;base64,","byteLength":768},{"uri":"data:application/octet-stream;base64,","byteLength":408}],"bufferViews":[{"buffer":0,"byteOffset":0,"byteLength":768},{"buffer":1,"byteOffset":0,"byteLength":408}]}