{"scene":0,"scenes":[{"nodes":[0]}],"asset":{"version":"2.0","generator":"https://github.com/mikedh/trimesh"},"accessors":[{"componentType":5125,"type":"SCALAR","bufferView":0,"count":96,"max":[17],"min":[0]},{"componentType":5126,"type":"VEC3","byteOffset":0,"bufferView":1,"count":18,"max":[0.2800000011920929,0.2750000059604645,0.2800000011920929],"min":[-0.2800000011920929,-0.2750000059604645,-0.2800000011920929]},{"componentType":5125,"type":"SCALAR","bufferView":2,"count":60,"max":[11],"min":[0]},{"componentType":5126,"type":"VEC3","byteOffset":0,"bufferView":3,"count":12,"max":[0.23818223178386688,0.6581822037696838,0.23818223178386688],"min":[-0.23818223178386688,0.18181777000427246,-0.23818223178386688]},{"componentType":5126,"type":"VEC3","byteOffset":0,"bufferView":4,"count":12,"max":[0.23818223178386688,-0.18181777000427246,0.23818223178386688],"min":[-0.23818223178386688,-0.6581822037696838,-0.23818223178386688]}],"meshes":[{"name":"g0","extras":{"shape":"cylinder","height":0.55,"radius":0.28,"processed":true},"primitives":[{"attributes":{"POSITION":1},"indices":0,"mode":4}]},{"name":"g1","extras":{"shape":"sphere","radius":0.28},"primitives":[{"attributes":{"POSITION":3},"indices":2,"mode":4}]},{"name":"g2","extras":{"shape":"sphere","radius":0.28},"primitives":[{"attributes":{"POSITION":4},"indices":2,"mode":4}]}],"nodes":[{"name":"world","children":[1,2,3]},{"name":"n0","mesh":0},{"name":"n1","mesh":1},{"name":"n2","mesh":2}],"buffers":[{"uri":"data:application/octet-stream;base64,","byteLength":384},{"uri":"data:application/octet-stream;base64,","byteLength":216},{"uri":"data:application/octet-stream;base64,","byteLength":240},{"uri":"data:application/octet-stream;base64,","byteLength":144},{"uri":"data:application/octet-stream;base64,","byteLength":144}],"bufferViews":[{"buffer":0,"byteOffset":0,"byteLength":384},{"buffer":1,"byteOffset":0,"byteLength":216},{"buffer":2,"byteOffset":0,"byteLength":240},{"buffer":3,"byteOffset":0,"byteLength":144},{"buffer":4,"byteOffset":0,"byteLength":144}]}