{"scene":0,"scenes":[{"nodes":[0]}],"asset":{"version":"2.0","generator":"https://github.com/mikedh/trimesh"},"accessors":[{"componentType":5125,"type":"SCALAR","bufferView":0,"count":60,"max":[11],"min":[0]},{"componentType":5126,"type":"VEC3","byteOffset":0,"bufferView":1,"count":12,"max":[0.44233840703964233,0.44233840703964233,0.44233840703964233],"min":[-0.44233840703964233,-0.44233840703964233,-0.44233840703964233]}],"meshes":[{"name":"g0","extras":{"shape":"sphere","radius":0.52},"primitives":[{"attributes":{"POSITION":1},"indices":0,"mode":4}]}],"nodes":[{"name":"world","children":[1]},{"name":"n0","mesh":0}],"buffers":[{"uri":"data:application/octet-stream;base64,","byteLength":240},{"uri":"data:application/octet-stream;base64,","byteLength":144}],"bufferViews":[{"buffer":0,"byteOffset":0,"byteLength":240},{"buffer":1,"byteOffset":0,"byteLength":144}]}