{"scene":0,"scenes":[{"nodes":[0]}],"asset":{"version":"2.0","generator":"https://github.com/mikedh/trimesh"},"accessors":[{"componentType":5125,"type":"SCALAR","bufferView":0,"count":36,"max":[7],"min":[0]},{"componentType":5126,"type":"VEC3","byteOffset":0,"bufferView":1,"count":8,"max":[1.149999976158142,0.14000000059604645,0.17000000178813934],"min":[-1.149999976158142,-0.14000000059604645,-0.17000000178813934]},{"componentType":5126,"type":"VEC3","byteOffset":0,"bufferView":2,"count":8,"max":[0.17000000178813934,0.14000000059604645,1.149999976158142],"min":[-0.17000000178813934,-0.14000000059604645,-1.149999976158142]},{"componentType":5125,"type":"SCALAR","bufferView":3,"count":96,"max":[17],"min":[0]},{"componentType":5126,"type":"VEC3","byteOffset":0,"bufferView":4,"count":18,"max":[0.2199999988079071,0.20999999344348907,0.2199999988079071],"min":[-0.2199999988079071,-0.20999999344348907,-0.2199999988079071]}],"meshes":[{"name":"g0","extras":{"shape":"box","extents":[2.3,0.28,0.34]},"primitives":[{"attributes":{"POSITION":1},"indices":0,"mode":4}]},{"name":"g1","extras":{"shape":"box","extents":[0.34,0.28,2.3]},"primitives":[{"attributes":{"POSITION":2},"indices":0,"mode":4}]},{"name":"g2","extras":{"shape":"cylinder","height":0.42,"radius":0.22,"processed":true},"primitives":[{"attributes":{"POSITION":4},"indices":3,"mode":4}]}],"nodes":[{"name":"world","children":[1,2,3]},{"name":"n0","mesh":0},{"name":"n1","mesh":1},{"name":"n2","mesh":2}],"buffers":[{"uri":"data:application/octet-stream;base64,","byteLength":144},{"uri":"data:application/octet-stream;base64,","byteLength":96},{"uri":"data:application/octet-stream;base64,","byteLength":96},{"uri":"data:application/octet-stream;base64,","byteLength":384},{"uri":"data:application/octet-stream;base64,","byteLength":216}],"bufferViews":[{"buffer":0,"byteOffset":0,"byteLength":144},{"buffer":1,"byteOffset":0,"byteLength":96},{"buffer":2,"byteOffset":0,"byteLength":96},{"buffer":3,"byteOffset":0,"byteLength":384},{"buffer":4,"byteOffset":0,"byteLength":216}]}