{"scene":0,"scenes":[{"nodes":[0]}],"asset":{"version":"2.0","generator":"https://github.com/mikedh/trimesh"},"accessors":[{"componentType":5125,"type":"SCALAR","bufferView":0,"count":36,"max":[7],"min":[0]},{"componentType":5126,"type":"VEC3","byteOffset":0,"bufferView":1,"count":8,"max":[-0.800000011920929,1.0,0.3499999940395355],"min":[-1.399999976158142,-1.0,-0.3499999940395355]},{"componentType":5126,"type":"VEC3","byteOffset":0,"bufferView":2,"count":8,"max":[1.399999976158142,1.0,0.3499999940395355],"min":[0.800000011920929,-1.0,-0.3499999940395355]},{"componentType":5126,"type":"VEC3","byteOffset":0,"bufferView":3,"count":8,"max":[1.399999976158142,1.524999976158142,0.3499999940395355],"min":[-1.399999976158142,0.9750000238418579,-0.3499999940395355]}],"meshes":[{"name":"g0","extras":{"shape":"box","extents":[0.6,2.0,0.7]},"primitives":[{"attributes":{"POSITION":1},"indices":0,"mode":4}]},{"name":"g1","extras":{"shape":"box","extents":[0.6,2.0,0.7]},"primitives":[{"attributes":{"POSITION":2},"indices":0,"mode":4}]},{"name":"g2","extras":{"shape":"box","extents":[2.8,0.55,0.7]},"primitives":[{"attributes":{"POSITION":3},"indices":0,"mode":4}]}],"nodes":[{"name":"world","children":[1,2,3]},{"name":"n0","mesh":0},{"name":"n1","mesh":1},{"name":"n2","mesh":2}],"buffers":[{"uri":"data:application/octet-stream;base64,","byteLength":144},{"uri":"data:application/octet-stream;base64,","byteLength":96},{"uri":"data:application/octet-stream;base64,","byteLength":96},{"uri":"data:application/octet-stream;base64,","byteLength":96}],"bufferViews":[{"buffer":0,"byteOffset":0,"byteLength":144},{"buffer":1,"byteOffset":0,"byteLength":96},{"buffer":2,"byteOffset":0,"byteLength":96},{"buffer":3,"byteOffset":0,"byteLength":96}]}