{"scene":0,"scenes":[{"nodes":[0]}],"asset":{"version":"2.0","generator":"https://github.com/mikedh/trimesh"},"accessors":[{"componentType":5125,"type":"SCALAR","bufferView":0,"count":120,"max":[21],"min":[0]},{"componentType":5126,"type":"VEC3","byteOffset":0,"bufferView":1,"count":22,"max":[0.3799999952316284,0.625,0.3614014685153961],"min":[-0.3799999952316284,-0.625,-0.3614014685153961]},{"componentType":5125,"type":"SCALAR","bufferView":2,"count":60,"max":[11],"min":[0]},{"componentType":5126,"type":"VEC3","byteOffset":0,"bufferView":3,"count":12,"max":[0.4083123803138733,1.2083123922348022,0.4083123803138733],"min":[-0.4083123803138733,0.3916876018047333,-0.4083123803138733]}],"meshes":[{"name":"g0","extras":{"shape":"cylinder","height":1.25,"radius":0.38,"processed":true},"primitives":[{"attributes":{"POSITION":1},"indices":0,"mode":4}]},{"name":"g1","extras":{"shape":"sphere","radius":0.48},"primitives":[{"attributes":{"POSITION":3},"indices":2,"mode":4}]}],"nodes":[{"name":"world","children":[1,2]},{"name":"n0","mesh":0},{"name":"n1","mesh":1}],"buffers":[{"uri":"data:application/octet-stream;base64,","byteLength":480},{"uri":"data:application/octet-stream;base64,","byteLength":264},{"uri":"data:application/octet-stream;base64,","byteLength":240},{"uri":"data:application/octet-stream;base64,","byteLength":144}],"bufferViews":[{"buffer":0,"byteOffset":0,"byteLength":480},{"buffer":1,"byteOffset":0,"byteLength":264},{"buffer":2,"byteOffset":0,"byteLength":240},{"buffer":3,"byteOffset":0,"byteLength":144}]}